<svg width="32" height="33" viewBox="0 0 32 33" fill="none" xmlns="http://www.w3.org/2000/svg">
<path d="M15.8383 27.4575C16.2584 27.4575 16.6613 27.6276 16.9584 27.9305C17.2554 28.2334 17.4223 28.6442 17.4223 29.0726V30.6877C17.4223 31.1161 17.2554 31.5269 16.9584 31.8298C16.6613 32.1327 16.2584 32.3029 15.8383 32.3029C15.4182 32.3029 15.0153 32.1327 14.7183 31.8298C14.4212 31.5269 14.2543 31.1161 14.2543 30.6877V29.0726C14.2543 28.6442 14.4212 28.2334 14.7183 27.9305C15.0153 27.6276 15.4182 27.4575 15.8383 27.4575ZM25.9189 24.1464L27.0388 25.2883C27.3274 25.5929 27.487 26.0009 27.4834 26.4244C27.4798 26.8479 27.3132 27.253 27.0195 27.5525C26.7259 27.8519 26.3286 28.0218 25.9132 28.0255C25.4979 28.0291 25.0978 27.8663 24.7991 27.5721L23.6792 26.4302C23.3906 26.1256 23.231 25.7176 23.2346 25.2941C23.2382 24.8706 23.4048 24.4655 23.6985 24.1661C23.9921 23.8666 24.3894 23.6968 24.8048 23.6931C25.2201 23.6894 25.6202 23.8522 25.9189 24.1464ZM5.7577 24.1464C6.04275 23.8567 6.42525 23.6886 6.82751 23.676C7.22977 23.6635 7.62162 23.8076 7.92348 24.079C8.22533 24.3504 8.41456 24.7288 8.45273 25.1373C8.49089 25.5458 8.37513 25.9538 8.12896 26.2784L7.99748 26.4302L6.87759 27.5721C6.59254 27.8618 6.21004 28.03 5.80778 28.0425C5.40552 28.055 5.01367 27.911 4.71181 27.6396C4.40995 27.3682 4.22073 26.9898 4.18256 26.5813C4.1444 26.1728 4.26016 25.7648 4.50633 25.4401L4.6378 25.2883L5.7577 24.1464ZM15.8383 6.46058C18.3589 6.46058 20.7763 7.48158 22.5587 9.29897C24.3411 11.1164 25.3424 13.5813 25.3424 16.1514C25.3424 18.7216 24.3411 21.1865 22.5587 23.0039C20.7763 24.8213 18.3589 25.8423 15.8383 25.8423C13.3177 25.8423 10.9003 24.8213 9.11795 23.0039C7.33559 21.1865 6.33428 18.7216 6.33428 16.1514C6.33428 13.5813 7.33559 11.1164 9.11795 9.29897C10.9003 7.48158 13.3177 6.46058 15.8383 6.46058ZM3.16626 14.5363C3.56999 14.5368 3.95832 14.6944 4.25189 14.977C4.54546 15.2596 4.72213 15.6458 4.74579 16.0568C4.76945 16.4677 4.63832 16.8724 4.37919 17.1881C4.12006 17.5038 3.7525 17.7067 3.35159 17.7553L3.16626 17.7666H1.58225C1.17852 17.7661 0.790198 17.6085 0.496624 17.3259C0.20305 17.0433 0.0263851 16.6571 0.00272455 16.2461C-0.020936 15.8351 0.110194 15.4305 0.369322 15.1148C0.628451 14.7991 0.996018 14.5962 1.39692 14.5476L1.58225 14.5363H3.16626ZM30.0944 14.5363C30.5145 14.5363 30.9174 14.7065 31.2145 15.0094C31.5115 15.3123 31.6784 15.7231 31.6784 16.1514C31.6784 16.5798 31.5115 16.9906 31.2145 17.2935C30.9174 17.5964 30.5145 17.7666 30.0944 17.7666H28.5104C28.0903 17.7666 27.6874 17.5964 27.3903 17.2935C27.0933 16.9906 26.9264 16.5798 26.9264 16.1514C26.9264 15.7231 27.0933 15.3123 27.3903 15.0094C27.6874 14.7065 28.0903 14.5363 28.5104 14.5363H30.0944ZM4.6378 4.73076C4.91056 4.45267 5.27345 4.28561 5.65841 4.26093C6.04336 4.23625 6.42392 4.35564 6.72869 4.5967L6.87759 4.73076L7.99748 5.87267C8.28157 6.16332 8.44651 6.55334 8.45879 6.96351C8.47108 7.37367 8.32978 7.77323 8.06362 8.08102C7.79745 8.38881 7.42637 8.58176 7.02574 8.62067C6.6251 8.65958 6.22497 8.54155 5.90659 8.29054L5.7577 8.15648L4.6378 7.01457C4.34085 6.71169 4.17403 6.30094 4.17403 5.87267C4.17403 5.44439 4.34085 5.03364 4.6378 4.73076ZM27.0388 4.73076C27.3358 5.03364 27.5026 5.44439 27.5026 5.87267C27.5026 6.30094 27.3358 6.71169 27.0388 7.01457L25.9189 8.15648C25.7728 8.31074 25.598 8.43379 25.4048 8.51843C25.2115 8.60308 25.0037 8.64764 24.7934 8.6495C24.583 8.65137 24.3744 8.6105 24.1798 8.52929C23.9851 8.44808 23.8083 8.32815 23.6595 8.1765C23.5108 8.02485 23.3932 7.84451 23.3135 7.64602C23.2339 7.44752 23.1938 7.23484 23.1956 7.02038C23.1975 6.80593 23.2412 6.59399 23.3242 6.39693C23.4072 6.19988 23.5279 6.02166 23.6792 5.87267L24.7991 4.73076C25.0961 4.42796 25.4989 4.25787 25.9189 4.25787C26.339 4.25787 26.7418 4.42796 27.0388 4.73076ZM15.8383 0C16.2584 0 16.6613 0.170166 16.9584 0.473065C17.2554 0.775963 17.4223 1.18678 17.4223 1.61514V3.23029C17.4223 3.65865 17.2554 4.06947 16.9584 4.37237C16.6613 4.67527 16.2584 4.84543 15.8383 4.84543C15.4182 4.84543 15.0153 4.67527 14.7183 4.37237C14.4212 4.06947 14.2543 3.65865 14.2543 3.23029V1.61514C14.2543 1.18678 14.4212 0.775963 14.7183 0.473065C15.0153 0.170166 15.4182 0 15.8383 0Z" fill="black"/>
</svg>
