<svg width="24" height="24" viewBox="0 0 24 24" fill="none" xmlns="http://www.w3.org/2000/svg">
<path fill-rule="evenodd" clip-rule="evenodd" d="M13 3C13 2.73478 12.8946 2.48043 12.7071 2.29289C12.5196 2.10536 12.2652 2 12 2C11.7348 2 11.4804 2.10536 11.2929 2.29289C11.1054 2.48043 11 2.73478 11 3V5C11 5.26522 11.1054 5.51957 11.2929 5.70711C11.4804 5.89464 11.7348 6 12 6C12.2652 6 12.5196 5.89464 12.7071 5.70711C12.8946 5.51957 13 5.26522 13 5V3ZM6.343 4.929C6.15355 4.75134 5.90241 4.65437 5.64273 4.65858C5.38305 4.6628 5.13519 4.76788 4.95161 4.95159C4.76803 5.13531 4.66312 5.38324 4.65909 5.64292C4.65505 5.90261 4.75221 6.15368 4.93 6.343L6.344 7.757C6.5326 7.93916 6.7852 8.03995 7.0474 8.03767C7.3096 8.0354 7.56041 7.93023 7.74582 7.74482C7.93123 7.55941 8.0364 7.3086 8.03867 7.0464C8.04095 6.7842 7.94016 6.5316 7.758 6.343L6.343 4.929ZM19.071 6.343C19.2532 6.1544 19.354 5.9018 19.3517 5.6396C19.3494 5.3774 19.2442 5.12659 19.0588 4.94118C18.8734 4.75577 18.6226 4.6506 18.3604 4.64833C18.0982 4.64605 17.8456 4.74684 17.657 4.929L16.243 6.343C16.0608 6.5316 15.96 6.7842 15.9623 7.0464C15.9646 7.3086 16.0698 7.55941 16.2552 7.74482C16.4406 7.93023 16.6914 8.0354 16.9536 8.03767C17.2158 8.03995 17.4684 7.93916 17.657 7.757L19.071 6.343ZM12 7C10.6739 7 9.40215 7.52678 8.46447 8.46447C7.52678 9.40215 7 10.6739 7 12C7 13.3261 7.52678 14.5979 8.46447 15.5355C9.40215 16.4732 10.6739 17 12 17C13.3261 17 14.5979 16.4732 15.5355 15.5355C16.4732 14.5979 17 13.3261 17 12C17 10.6739 16.4732 9.40215 15.5355 8.46447C14.5979 7.52678 13.3261 7 12 7ZM3 11C2.73478 11 2.48043 11.1054 2.29289 11.2929C2.10536 11.4804 2 11.7348 2 12C2 12.2652 2.10536 12.5196 2.29289 12.7071C2.48043 12.8946 2.73478 13 3 13H5C5.26522 13 5.51957 12.8946 5.70711 12.7071C5.89464 12.5196 6 12.2652 6 12C6 11.7348 5.89464 11.4804 5.70711 11.2929C5.51957 11.1054 5.26522 11 5 11H3ZM19 11C18.7348 11 18.4804 11.1054 18.2929 11.2929C18.1054 11.4804 18 11.7348 18 12C18 12.2652 18.1054 12.5196 18.2929 12.7071C18.4804 12.8946 18.7348 13 19 13H21C21.2652 13 21.5196 12.8946 21.7071 12.7071C21.8946 12.5196 22 12.2652 22 12C22 11.7348 21.8946 11.4804 21.7071 11.2929C21.5196 11.1054 21.2652 11 21 11H19ZM7.757 17.657C7.85251 17.5648 7.92869 17.4544 7.9811 17.3324C8.03351 17.2104 8.0611 17.0792 8.06225 16.9464C8.0634 16.8136 8.0381 16.6819 7.98782 16.559C7.93754 16.4361 7.86329 16.3245 7.76939 16.2306C7.6755 16.1367 7.56385 16.0625 7.44095 16.0122C7.31806 15.9619 7.18638 15.9366 7.0536 15.9377C6.92082 15.9389 6.7896 15.9665 6.6676 16.0189C6.54559 16.0713 6.43525 16.1475 6.343 16.243L4.929 17.657C4.83349 17.7492 4.75731 17.8596 4.7049 17.9816C4.65249 18.1036 4.6249 18.2348 4.62375 18.3676C4.6226 18.5004 4.6479 18.6321 4.69818 18.755C4.74846 18.8778 4.82271 18.9895 4.9166 19.0834C5.0105 19.1773 5.12215 19.2515 5.24505 19.3018C5.36794 19.3521 5.49962 19.3774 5.6324 19.3763C5.76518 19.3751 5.8964 19.3475 6.0184 19.2951C6.14041 19.2427 6.25075 19.1665 6.343 19.071L7.757 17.657ZM17.657 16.243C17.4684 16.0608 17.2158 15.96 16.9536 15.9623C16.6914 15.9646 16.4406 16.0698 16.2552 16.2552C16.0698 16.4406 15.9646 16.6914 15.9623 16.9536C15.96 17.2158 16.0608 17.4684 16.243 17.657L17.657 19.071C17.8456 19.2532 18.0982 19.354 18.3604 19.3517C18.6226 19.3494 18.8734 19.2442 19.0588 19.0588C19.2442 18.8734 19.3494 18.6226 19.3517 18.3604C19.354 18.0982 19.2532 17.8456 19.071 17.657L17.657 16.243ZM13 19C13 18.7348 12.8946 18.4804 12.7071 18.2929C12.5196 18.1054 12.2652 18 12 18C11.7348 18 11.4804 18.1054 11.2929 18.2929C11.1054 18.4804 11 18.7348 11 19V21C11 21.2652 11.1054 21.5196 11.2929 21.7071C11.4804 21.8946 11.7348 22 12 22C12.2652 22 12.5196 21.8946 12.7071 21.7071C12.8946 21.5196 13 21.2652 13 21V19Z" fill="black"/>
</svg>
