<svg width="35" height="35" viewBox="0 0 35 35" fill="none" xmlns="http://www.w3.org/2000/svg">
<g opacity="0.5">
<path d="M8.75 16.25C8.75 15.9739 8.97386 15.75 9.25 15.75H25.75C26.0261 15.75 26.25 15.9739 26.25 16.25V23.3676C26.25 24.0701 25.8814 24.7212 25.279 25.0826L18.529 29.1326C17.8956 29.5126 17.1044 29.5126 16.471 29.1326L9.72101 25.0826C9.1186 24.7212 8.75 24.0701 8.75 23.3676V16.25Z" fill="#408CFF"/>
<path d="M4.1784 14.424C3.86507 14.2282 3.86507 13.7718 4.1784 13.576L17.235 5.41562C17.3972 5.31429 17.6029 5.31429 17.765 5.41563L30.8216 13.576C31.1349 13.7718 31.1349 14.2282 30.8216 14.424L17.765 22.5844C17.6029 22.6857 17.3972 22.6857 17.235 22.5844L4.1784 14.424Z" fill="#98BFFA"/>
</g>
</svg>
