<svg width="35" height="35" viewBox="0 0 35 35" fill="none" xmlns="http://www.w3.org/2000/svg">
<g opacity="0.5">
<path d="M25.25 5.24998C25.8023 5.24998 26.25 5.6977 26.25 6.24998V25.25C26.25 25.8023 25.8023 26.25 25.25 26.25H10.207V27C10.207 27.5523 10.6548 28 11.207 28H26.25V28.75C26.25 29.3023 25.8023 29.75 25.25 29.75H9.75C9.19772 29.75 8.75 29.3023 8.75 28.75V6.24998C8.75 5.6977 9.19772 5.24998 9.75 5.24998H25.25ZM14 8.74998C13.517 8.75023 13.125 9.14189 13.125 9.62498C13.125 10.1081 13.517 10.4997 14 10.5H21C21.4832 10.5 21.875 10.1082 21.875 9.62498C21.875 9.14174 21.4832 8.74998 21 8.74998H14Z" fill="#408CFF"/>
</g>
</svg>
