<svg width="32" height="32" viewBox="0 0 32 32" fill="none" xmlns="http://www.w3.org/2000/svg">
<path d="M12.3631 3.208C12.4681 2.97172 12.5022 2.71 12.4612 2.45469C12.4202 2.19938 12.3058 1.96151 12.132 1.77005C11.9582 1.57858 11.7325 1.44179 11.4823 1.37632C11.2322 1.31086 10.9684 1.31955 10.7231 1.40133C8.78706 2.04666 7.24306 3.31733 5.82706 4.73333C4.4036 6.14622 3.27382 7.82686 2.50285 9.67839C1.73188 11.5299 1.33496 13.5157 1.33496 15.5213C1.33496 17.527 1.73188 19.5127 2.50285 21.3643C3.27382 23.2158 4.4036 24.8964 5.82706 26.3093C11.8511 32.3347 21.1737 31.9907 27.1284 26.036C28.5444 24.62 29.8137 23.076 30.4591 21.1387C30.5382 20.9005 30.5486 20.6448 30.4889 20.401C30.4292 20.1573 30.3019 19.9353 30.1217 19.7606C29.9415 19.586 29.7156 19.4657 29.4701 19.4137C29.2245 19.3617 28.9693 19.3801 28.7337 19.4667C23.9471 21.2293 18.5004 20.4453 14.8231 16.7667C11.1337 13.0773 10.3844 7.65866 12.3631 3.208Z" fill="white"/>
</svg>
