<svg width="22" height="22" viewBox="0 0 22 22" fill="none" xmlns="http://www.w3.org/2000/svg">
<path d="M2.9502 2.29886C6.45671 -0.868652 11.8699 -0.762876 15.249 2.61624L15.5664 2.94925C18.3979 6.08343 18.6111 10.7396 16.2119 14.1065L21.5654 19.459C22.1467 20.0403 22.1466 20.9831 21.5654 21.5645C20.984 22.1459 20.0414 22.1459 19.46 21.5645L14.1064 16.2119C10.7397 18.6109 6.08435 18.3968 2.9502 15.5655L2.61621 15.2491C-0.87213 11.7607 -0.872059 6.10459 2.61621 2.61624L2.9502 2.29886ZM13.1279 4.73734C10.8112 2.42059 7.05411 2.42064 4.7373 4.73734C2.42074 7.054 2.42091 10.8102 4.7373 13.127C7.05411 15.4437 10.8112 15.4437 13.1279 13.127C15.4443 10.8102 15.4444 7.05399 13.1279 4.73734Z" fill="#408CFF"/>
</svg>
