<svg width="32" height="32" viewBox="0 0 32 32" fill="none" xmlns="http://www.w3.org/2000/svg">
<path d="M26.8529 17.8031L26.8592 17.8062C26.9561 17.2156 27.0029 16.6125 27.0029 16.0156C27.0029 15.4812 26.9623 14.9437 26.8873 14.4187C26.9623 14.9406 26.9998 15.4688 26.9998 15.9969C26.9998 16.6031 26.9498 17.2094 26.8529 17.8031ZM3.09355 12.4406C3.07793 12.4281 3.06543 12.4156 3.0498 12.4C3.07168 12.4219 3.09355 12.4437 3.11855 12.4656L5.16543 14.2125V14.2094L3.09355 12.4406ZM19.8623 5.69063H19.8654L19.3811 3.07188C19.3748 3.04063 19.3686 3.0125 19.3592 2.98438C19.3623 3 19.3686 3.01875 19.3717 3.03437L19.8623 5.69063ZM21.5498 22.7687L22.5311 21.9625L25.4311 22.9906C25.9623 22.275 26.4092 21.5062 26.7623 20.6906L24.4279 18.6938L24.6342 17.4406C24.7123 16.9687 24.7529 16.4844 24.7529 16C24.7529 15.5156 24.7123 15.0312 24.6342 14.5594L24.4311 13.3125L26.7654 11.3156C26.4092 10.5031 25.9654 9.73125 25.4342 9.01562L22.5342 10.0437L21.5529 9.2375C20.8061 8.625 19.9717 8.14375 19.0748 7.80625L17.8842 7.35938L17.3248 4.32812C16.4422 4.22812 15.5511 4.22812 14.6686 4.32812L14.1092 7.36562L12.9248 7.8125C12.0342 8.15 11.2061 8.63125 10.4654 9.24063L9.48418 10.05L6.56543 9.0125C6.03418 9.72812 5.5873 10.4969 5.23418 11.3125L7.59355 13.3281L7.39043 14.5781C7.3123 15.0437 7.27481 15.5219 7.27481 16C7.27481 16.475 7.31543 16.9563 7.39043 17.4219L7.59355 18.6719L5.23418 20.6875C5.59043 21.5 6.03418 22.2719 6.56543 22.9875L9.48418 21.95L10.4654 22.7594C11.2061 23.3687 12.0342 23.85 12.9248 24.1875L14.1061 24.6406L14.6654 27.6781C15.5467 27.7781 16.4436 27.7781 17.3217 27.6781L17.8811 24.6469L19.0717 24.2C19.9717 23.8625 20.8029 23.3812 21.5498 22.7687ZM16.0154 21.1969C15.0623 21.1969 14.1654 20.9531 13.3811 20.525C11.6654 19.5938 10.4998 17.7781 10.4998 15.6875C10.4998 12.65 12.9623 10.1875 15.9998 10.1875C18.0904 10.1875 19.9061 11.3531 20.8373 13.0688C21.2654 13.85 21.5092 14.7469 21.5092 15.7031C21.5092 18.7375 19.0498 21.1969 16.0154 21.1969ZM6.4748 25.4C6.30293 25.4594 6.1248 25.4719 5.95605 25.4375C6.13418 25.475 6.32168 25.4688 6.50293 25.4062L9.04668 24.5C9.04355 24.4969 9.0373 24.4937 9.03418 24.4906L6.4748 25.4ZM28.8998 12.4406L26.8529 14.1906C26.8529 14.1969 26.8561 14.2062 26.8561 14.2125L28.8998 12.4656C29.1217 12.275 29.2467 12 29.2498 11.7156C29.2404 11.9906 29.1154 12.2563 28.8998 12.4406Z" fill="#98BFFA"/>
<path d="M29.2434 20.2062C29.259 20.3531 29.2434 20.5031 29.1902 20.6469L29.1621 20.7281C28.5972 22.3024 27.7535 23.7621 26.6715 25.0375L26.6152 25.1031C26.4841 25.2581 26.309 25.3695 26.1131 25.4225C25.9171 25.4755 25.7097 25.4677 25.5184 25.4L22.9777 24.4969C22.0457 25.2648 20.9929 25.873 19.8621 26.2969L19.3715 28.9531C19.3345 29.153 19.2375 29.3369 19.0935 29.4803C18.9495 29.6238 18.7652 29.72 18.5652 29.7562L18.4809 29.7719C17.6641 29.9195 16.8358 29.9938 16.0059 29.9937H16.0152C16.8496 29.9937 17.684 29.9187 18.4965 29.7719L18.5809 29.7562C18.7809 29.72 18.9651 29.6238 19.1091 29.4803C19.2531 29.3369 19.3501 29.153 19.3871 28.9531L19.8777 26.3C21.009 25.875 22.0527 25.2719 22.9902 24.5031L25.5277 25.4062C25.7191 25.4739 25.9265 25.4818 26.1224 25.4287C26.3184 25.3757 26.4935 25.2643 26.6246 25.1094L26.6809 25.0437C27.7684 23.7594 28.6027 22.3125 29.1684 20.7406L29.1965 20.6594C29.2465 20.5125 29.2621 20.3562 29.2434 20.2062Z" fill="#98BFFA"/>
<path d="M21.5 15.6875C21.5 14.7406 21.2594 13.8469 20.8375 13.0688C19.9062 11.3531 18.0906 10.1875 16 10.1875C12.9625 10.1875 10.5 12.65 10.5 15.6875C10.5 17.7781 11.6656 19.5938 13.3813 20.525C14.1594 20.9469 15.05 21.1875 16 21.1875C19.0375 21.1875 21.5 18.725 21.5 15.6875ZM12.5 15.6875C12.5 14.7531 12.8656 13.875 13.525 13.2125C14.1875 12.55 15.0656 12.1875 16 12.1875C16.9344 12.1875 17.8125 12.55 18.475 13.2125C18.8006 13.5371 19.0587 13.9229 19.2346 14.3477C19.4105 14.7724 19.5007 15.2278 19.5 15.6875C19.5 16.6219 19.1344 17.5 18.475 18.1625C18.1504 18.4881 17.7646 18.7462 17.3398 18.9221C16.9151 19.098 16.4597 19.1882 16 19.1875C15.0656 19.1875 14.1875 18.8219 13.525 18.1625C13.1994 17.8379 12.9413 17.4521 12.7654 17.0273C12.5895 16.6026 12.4993 16.1472 12.5 15.6875Z" fill="#408CFF"/>
<path d="M18.566 29.7562C18.766 29.72 18.9503 29.6238 19.0943 29.4803C19.2383 29.3369 19.3353 29.153 19.3723 28.9531L19.8629 26.2969C20.9937 25.873 22.0465 25.2648 22.9785 24.4969L25.5191 25.4C25.7105 25.4677 25.9179 25.4755 26.1138 25.4225C26.3098 25.3695 26.4849 25.2581 26.616 25.1031L26.6723 25.0375C27.7598 23.7531 28.5973 22.3031 29.1629 20.7281L29.191 20.6469C29.2441 20.5031 29.2598 20.3531 29.2441 20.2062C29.216 19.9594 29.0973 19.725 28.9004 19.5531L26.8598 17.8062L26.8535 17.8031C26.9504 17.2094 27.0004 16.6031 27.0004 15.9969C27.0004 15.4687 26.9629 14.9375 26.8879 14.4187C26.8785 14.35 26.866 14.2812 26.8566 14.2125C26.8566 14.2062 26.8535 14.1969 26.8535 14.1906L28.9004 12.4406C29.116 12.2562 29.241 11.9906 29.2504 11.7156C29.2535 11.5906 29.2348 11.4625 29.191 11.3406L29.1629 11.2594C28.5994 9.68443 27.7556 8.22446 26.6723 6.94999L26.616 6.88436C26.4846 6.72984 26.3094 6.61876 26.1136 6.56576C25.9178 6.51277 25.7106 6.52034 25.5191 6.58749L22.9785 7.49061C22.041 6.72186 20.9973 6.11561 19.866 5.69061H19.8629L19.3723 3.03436C19.3691 3.01874 19.366 2.99999 19.3598 2.98436C19.3147 2.79542 19.2156 2.62366 19.0747 2.48996C18.9338 2.35626 18.7571 2.26637 18.566 2.23124L18.4816 2.21561C16.8535 1.92186 15.141 1.92186 13.5129 2.21561L13.4285 2.23124C13.2285 2.26748 13.0443 2.36372 12.9003 2.50717C12.7562 2.65062 12.6593 2.83449 12.6223 3.03436L12.1285 5.70311C11.0063 6.12822 9.96124 6.73415 9.03477 7.49686L6.4754 6.58749C6.28404 6.51981 6.07662 6.51196 5.88069 6.56499C5.68477 6.61801 5.50962 6.72941 5.37852 6.88436L5.32227 6.94999C4.24022 8.22537 3.39656 9.6851 2.83165 11.2594L2.80352 11.3406C2.7384 11.5222 2.72705 11.7188 2.77084 11.9067C2.81463 12.0946 2.9117 12.2659 3.0504 12.4C3.06602 12.4125 3.07852 12.4281 3.09415 12.4406L5.16602 14.2094V14.2125C5.06915 14.8 5.02227 15.3969 5.02227 15.9937C5.02227 16.5937 5.06915 17.1937 5.16602 17.7781L3.09415 19.5469C2.93976 19.679 2.82926 19.8551 2.77735 20.0516C2.72543 20.248 2.73456 20.4557 2.80352 20.6469L2.83165 20.7281C3.39727 22.3031 4.23477 23.7562 5.32227 25.0375L5.37852 25.1031C5.53165 25.2812 5.73477 25.3969 5.95665 25.4375C6.1254 25.4687 6.30352 25.4594 6.4754 25.4L9.03477 24.4906C9.0379 24.4937 9.04415 24.4969 9.04727 24.5C9.9754 25.2594 11.0098 25.8625 12.1285 26.2844L12.6223 28.9531C12.6593 29.153 12.7562 29.3369 12.9003 29.4803C13.0443 29.6238 13.2285 29.72 13.4285 29.7562L13.5129 29.7719C14.3285 29.9187 15.1629 29.9937 15.9973 29.9937H16.0066C16.8379 29.9937 17.6723 29.9187 18.4816 29.7719L18.566 29.7562ZM17.3223 27.6781C16.4397 27.7781 15.5486 27.7781 14.666 27.6781L14.1066 24.6406L12.9254 24.1875C12.0348 23.85 11.2066 23.3687 10.466 22.7594L9.48477 21.95L6.56602 22.9875C6.03477 22.2719 5.59102 21.5 5.23477 20.6875L7.59415 18.6719L7.39102 17.4219C7.31602 16.9562 7.2754 16.475 7.2754 16C7.2754 15.5219 7.3129 15.0437 7.39102 14.5781L7.59415 13.3281L5.23477 11.3125C5.5879 10.4969 6.03477 9.72811 6.56602 9.01249L9.48477 10.05L10.466 9.24061C11.2066 8.63124 12.0348 8.14999 12.9254 7.81249L14.1098 7.36561L14.6691 4.32811C15.5473 4.22811 16.4441 4.22811 17.3254 4.32811L17.8848 7.35936L19.0754 7.80624C19.9723 8.14374 20.8066 8.62499 21.5535 9.23749L22.5348 10.0437L25.4348 9.01561C25.966 9.73124 26.4098 10.5031 26.766 11.3156L24.4316 13.3125L24.6348 14.5594C24.7129 15.0312 24.7535 15.5156 24.7535 16C24.7535 16.4844 24.7129 16.9687 24.6348 17.4406L24.4285 18.6937L26.7629 20.6906C26.409 21.5059 25.9623 22.2777 25.4316 22.9906L22.5316 21.9625L21.5504 22.7687C20.8035 23.3812 19.9723 23.8625 19.0723 24.2L17.8816 24.6469L17.3223 27.6781Z" fill="#408CFF"/>
</svg>
