<svg width="20" height="20" viewBox="0 0 20 20" fill="none" xmlns="http://www.w3.org/2000/svg">
<path d="M2.53947 2.53943C5.66358 -0.584678 10.7287 -0.584504 13.8529 2.53943C16.7376 5.42407 16.9564 9.96156 14.5141 13.1L19.5102 18.0961C19.9006 18.4866 19.9007 19.1196 19.5102 19.5101C19.1197 19.9006 18.4866 19.9006 18.0961 19.5101L13.1 14.514C9.9616 16.9563 5.42412 16.7376 2.53947 13.8529C-0.584462 10.7287 -0.584636 5.66354 2.53947 2.53943ZM12.4389 3.95349C10.0957 1.61061 6.29659 1.61043 3.95353 3.95349C1.61047 6.29655 1.61065 10.0957 3.95353 12.4388C6.29668 14.782 10.0957 14.782 12.4389 12.4388C14.782 10.0957 14.782 6.29664 12.4389 3.95349Z" fill="#A9ADB9"/>
</svg>
